<?xml version="1.0" standalone="no"?>
<!DOCTYPE svg PUBLIC "-//W3C//DTD SVG 20010904//EN"
 "http://www.w3.org/TR/2001/REC-SVG-20010904/DTD/svg10.dtd">
<svg version="1.0" xmlns="http://www.w3.org/2000/svg"
 width="256.000000pt" height="256.000000pt" viewBox="0 0 256.000000 256.000000"
 preserveAspectRatio="xMidYMid meet">
<metadata>
Created by potrace 1.14, written by Peter Selinger 2001-2017
</metadata>
<g transform="translate(0.000000,256.000000) scale(0.100000,-0.100000)"
fill="#000000" stroke="none">
<path d="M1180 2454 c-14 -2 -59 -9 -100 -15 -215 -32 -455 -154 -623 -317
-168 -163 -296 -407 -338 -642 -17 -96 -17 -304 0 -400 41 -228 158 -457 319
-623 163 -168 407 -296 642 -338 96 -17 304 -17 400 0 362 65 676 296 844 620
91 176 130 340 130 541 0 143 -14 237 -55 363 -133 407 -478 712 -898 793 -77
15 -276 26 -321 18z m301 -189 c89 -19 150 -40 244 -85 80 -38 205 -125 212
-147 7 -19 -130 -147 -226 -212 -83 -55 -193 -113 -263 -140 -27 -10 -28 -8
-84 87 -83 141 -168 274 -246 384 -37 53 -68 99 -68 102 0 6 93 24 150 29 67
6 206 -3 281 -18z m-513 -243 c89 -132 252 -394 252 -406 0 -9 -66 -26 -215
-55 -202 -40 -369 -61 -552 -68 -175 -7 -165 -14 -132 88 82 249 244 449 469
577 38 22 58 28 66 21 7 -6 57 -76 112 -157z m1148 -184 c56 -84 115 -216 139
-313 14 -58 36 -224 30 -232 -1 -2 -39 4 -86 12 -133 24 -390 38 -508 28
l-104 -9 -43 94 c-24 52 -44 96 -44 98 0 1 51 28 113 59 144 72 274 165 368
263 41 43 77 76 81 75 4 -2 28 -36 54 -75z m-765 -470 l39 -83 -67 -22 c-182
-61 -382 -189 -546 -351 -87 -85 -237 -272 -237 -294 0 -34 -112 116 -162 217
-55 110 -91 246 -103 393 l-6 82 63 0 c239 0 713 65 898 124 76 24 77 24 121
-66z m680 -199 c48 -5 120 -18 160 -28 l74 -17 -3 -42 c-2 -43 -50 -189 -84
-257 -28 -56 -93 -150 -145 -212 -45 -53 -180 -169 -188 -162 -2 3 -14 51 -25
109 -28 131 -88 353 -135 489 -19 58 -35 108 -35 112 0 18 258 23 381 8z
m-507 -240 c51 -153 127 -441 142 -535 6 -40 6 -41 -38 -57 -283 -107 -626
-71 -880 93 -43 27 -78 55 -78 63 0 21 58 106 130 192 144 169 339 305 575
401 61 25 82 29 87 20 4 -7 32 -87 62 -177z"/>
</g>
</svg>
